<?xml version="1.0" encoding="utf-8"?>
<!-- Generator: Adobe Illustrator 22.0.1, SVG Export Plug-In . SVG Version: 6.00 Build 0)  -->
<svg version="1.1" id="Layer_1" xmlns="http://www.w3.org/2000/svg" xmlns:xlink="http://www.w3.org/1999/xlink" x="0px" y="0px"
	 viewBox="0 0 870.6 517.2" style="enable-background:new 0 0 870.6 517.2;" xml:space="preserve">
<style type="text/css">
	.st0{fill:#C4D600;}
	.st1{fill:#00030B;}
</style>
<path class="st0" d="M377.7,481.4l-1.5,0.9c-7.7,4.6-17.6,2.1-22.2-5.5c-4.6-7.7-2.1-17.6,5.5-22.3c1.1-0.6,2.3-1.2,3.5-1.6l1.7-0.5
	c8.4-2.7,17.5,2,20.1,10.4C387,470.1,383.9,477.7,377.7,481.4"/>
<path class="st0" d="M238.8,517.2l-1.9,0c-18.1-0.4-32.4-15.4-32-33.5c0.4-18.1,15.4-32.4,33.5-32c2.7,0.1,5.4,0.5,8,1.2l1.8,0.5
	c17.3,4.8,27.5,22.7,22.7,40C266.9,508,253.4,517.5,238.8,517.2"/>
<path class="st0" d="M95.1,467.2l-1.5-1c-21.5-15.3-26.5-45.1-11.3-66.5c15.3-21.5,45.1-26.5,66.5-11.2c2.6,1.9,5.1,4.1,7.2,6.3
	l1.3,1.3c17.9,19.2,16.9,49.3-2.3,67.2C138.2,478.9,113.1,480,95.1,467.2"/>
<path class="st0" d="M3.3,338.6l-0.6-1.7c-9.6-29.1,6.3-60.5,35.4-70c29.1-9.6,60.5,6.2,70,35.4c0.4,1.3,0.8,2.7,1.1,4l0.4,1.8
	c7.4,29.7-10.7,59.8-40.4,67.2C41.1,382.1,12.4,365.8,3.3,338.6"/>
<path class="st0" d="M3.4,178.4l0.6-1.8c9.8-29,41.3-44.6,70.3-34.8c27.7,9.4,43.1,38.6,36,66.5l-0.5,1.8
	c-7.7,29.7-38,47.6-67.7,39.9c-29.7-7.7-47.5-38-39.9-67.7C2.6,181,3,179.6,3.4,178.4"/>
<path class="st0" d="M95.4,49.7l1.5-1c21.6-15,51.3-9.7,66.4,11.9c13.1,18.9,10.7,44-4.6,60l-1.2,1.3c-18.2,19.2-48.5,20-67.7,1.8
	C70.6,105.5,69.8,75.2,88,56C90.2,53.7,92.8,51.5,95.4,49.7"/>
<path class="st0" d="M239.2,0l1.8,0c18-0.2,32.7,14.3,32.9,32.4c0.1,15.1-10.1,28-24.1,31.8l-1.8,0.5c-17.5,4.8-35.6-5.6-40.4-23.1
	c-4.8-17.5,5.6-35.6,23.1-40.4C233.5,0.4,236.4,0,239.2,0"/>
<path class="st0" d="M378,36.1l1.6,1c7.6,4.6,9.9,14.4,5.3,22c-4,6.5-11.8,9.1-18.7,6.8l-1.8-0.6c-8.5-2.8-13.1-12-10.3-20.5
	c2.8-8.5,12-13.1,20.5-10.3C375.8,34.9,377,35.5,378,36.1"/>
<path class="st1" d="M568.9,386.9h18.9l-9.4-19.8L568.9,386.9z M558.4,409h-7.8l27.9-58.3l27.7,58.3h-7.8l-7.1-14.9h-25.8L558.4,409
	z"/>
<path class="st1" d="M625.4,353.2c3.5-1.5,7.4-2.3,11.2-2.3c4.1,0,8,0.8,11.7,2.5c3.6,1.6,6.8,3.9,9.5,6.8c0.8,0.9,1.6,1.9,2.3,2.9
	l-5.7,4.2c-0.6-0.7-1.1-1.5-1.8-2.1c-4.2-4.6-9.9-7.1-16.1-7.1c-12,0-21.9,10-21.9,22.3c0,12.2,9.9,22.3,21.9,22.3
	c10.9,0,20-8.2,21.7-18.7h-19.1v-7.2h26.4v3.6c0,3.9-0.8,7.8-2.2,11.4c-1.5,3.5-3.6,6.7-6.3,9.4c-2.7,2.7-5.7,4.8-9.2,6.3
	c-3.6,1.6-7.4,2.3-11.3,2.3c-3.9,0-7.7-0.7-11.2-2.3c-3.4-1.5-6.6-3.6-9.2-6.3c-2.6-2.7-4.7-5.9-6.2-9.4c-1.5-3.6-2.2-7.5-2.2-11.4
	c0-4,0.7-7.8,2.2-11.5c1.4-3.5,3.5-6.6,6.2-9.3C618.8,356.8,622,354.7,625.4,353.2"/>
<polygon class="st1" points="673.6,351.7 710.5,351.7 710.5,358.8 680.6,358.8 680.6,376.7 705.3,376.7 705.3,383.9 680.6,383.9 
	680.6,401.8 710.5,401.8 710.5,409 673.6,409 "/>
<polygon class="st1" points="754.5,351.7 761.5,351.7 761.5,410 725.5,369.2 725.5,409 718.5,409 718.5,350.5 754.5,391.3 "/>
<path class="st1" d="M771.8,391.8c-1.5-3.7-2.3-7.5-2.3-11.5c0-4,0.8-7.8,2.3-11.5c1.4-3.5,3.5-6.7,6.2-9.4c2.6-2.7,5.8-4.8,9.2-6.3
	c3.6-1.6,7.4-2.4,11.3-2.4c7.1,0,13.8,2.6,19.1,7.3l-4.7,5.4c-4-3.6-9.2-5.5-14.4-5.5c-12.1,0-22,10-22,22.4
	c0,12.3,9.9,22.3,22,22.3c5.3,0,10.4-1.9,14.4-5.5l4.7,5.4c-5.3,4.6-12,7.3-19.1,7.3c-3.9,0-7.7-0.7-11.3-2.3
	c-3.5-1.5-6.6-3.6-9.2-6.4C775.4,398.5,773.3,395.3,771.8,391.8"/>
<polygon class="st1" points="844.6,409 844.6,389.5 825.8,351.7 833.7,351.7 848.1,380.7 862.7,351.7 870.6,351.7 851.6,389.5 
	851.6,409 "/>
<g>
	<path class="st1" d="M341.5,192.6c0.4,0,1.4,0.1,3,0.2v35.8c-2.2-0.2-4.1-0.4-5.8-0.5c-1.7-0.1-3.1-0.1-4.1-0.1
		c-13.8,0-23.1,4.6-27.9,13.7c-2.7,5.1-4,13.1-4,23.8v63.9h-34.6V195.7h32.8V219c5.3-8.9,9.9-15,13.9-18.3
		c6.4-5.5,14.8-8.2,25.1-8.2C340.5,192.5,341,192.6,341.5,192.6"/>
	<path class="st1" d="M392.6,228.6c-4.9,5.1-7.9,12-9.2,20.7h59.2c-0.6-9.3-3.7-16.3-9.2-21.1c-5.5-4.8-12.3-7.2-20.4-7.2
		C404.3,221,397.5,223.5,392.6,228.6 M444.1,198.4c9.2,4.2,16.7,10.8,22.7,19.8c5.4,7.9,8.9,17.2,10.5,27.6c0.9,6.1,1.3,15,1.1,26.5
		h-95.8c0.5,13.4,5.1,22.8,13.8,28.2c5.3,3.4,11.6,5,18.9,5c7.8,0,14.2-2,19.1-6.1c2.7-2.2,5-5.3,7.1-9.2h35.1
		c-0.9,7.9-5.2,16-12.7,24.1c-11.8,13-28.3,19.5-49.5,19.5c-17.5,0-32.9-5.5-46.3-16.4c-13.4-11-20.1-28.8-20.1-53.5
		c0-23.1,6-40.9,18.1-53.2c12.1-12.3,27.7-18.5,47-18.5C424.6,192.2,434.9,194.3,444.1,198.4"/>
	<path class="st1" d="M562.7,264.4c-2.2,1.4-4.4,2.5-6.7,3.4c-2.2,0.9-5.3,1.7-9.2,2.4l-7.8,1.5c-7.3,1.3-12.6,2.9-15.8,4.8
		c-5.4,3.2-8.1,8.1-8.1,14.8c0,6,1.7,10.3,5,12.9c3.3,2.7,7.3,4,12.1,4c7.5,0,14.4-2.2,20.8-6.6c6.3-4.4,9.6-12.5,9.9-24.1V264.4z
		 M541.7,248.1c6.4-0.8,11-1.8,13.7-3.1c4.9-2.1,7.4-5.4,7.4-9.9c0-5.5-1.9-9.3-5.7-11.3c-3.8-2.1-9.3-3.1-16.7-3.1
		c-8.2,0-14.1,2-17.5,6.1c-2.4,3-4.1,7.1-4.9,12.3h-33.2c0.7-11.7,4-21.3,9.7-28.8c9.1-11.8,24.8-17.6,47-17.6
		c14.5,0,27.3,2.9,38.5,8.7s16.8,16.8,16.8,32.9v61.3c0,4.2,0.1,9.4,0.2,15.4c0.2,4.6,0.9,7.7,2.1,9.3c1.1,1.6,2.8,3,5.1,4v5.2
		h-37.4c-1-2.7-1.8-5.2-2.2-7.6c-0.4-2.4-0.7-5.1-1-8.1c-4.8,5.2-10.3,9.7-16.5,13.4c-7.4,4.3-15.9,6.5-25.2,6.5
		c-12,0-21.9-3.5-29.7-10.4c-7.8-6.9-11.7-16.7-11.7-29.4c0-16.4,6.3-28.3,18.8-35.7c6.9-4,17-6.9,30.4-8.6L541.7,248.1z"/>
	<path class="st1" d="M699.4,243.6c-0.6-5-2.3-9.5-5-13.5c-3.9-5.4-9.9-8.1-18-8.1c-11.6,0-19.6,5.8-23.8,17.5
		c-2.3,6.2-3.4,14.4-3.4,24.7c0,9.8,1.1,17.6,3.4,23.6c4.1,11.1,11.8,16.7,23.2,16.7c8.1,0,13.8-2.2,17.2-6.6
		c3.4-4.4,5.4-10.1,6.2-17.2h35.1c-0.8,10.6-4.6,20.7-11.4,30.2c-10.8,15.3-26.8,22.9-47.9,22.9c-21.2,0-36.7-6.4-46.7-19.1
		c-10-12.7-15-29.3-15-49.6c0-22.9,5.5-40.8,16.5-53.5c11-12.7,26.2-19.1,45.6-19.1c16.5,0,30,3.8,40.5,11.3
		c10.5,7.5,16.7,20.8,18.7,39.8H699.4z"/>
	<path class="st1" d="M846.5,196.5c6.6,2.9,12,7.2,16.3,13.1c3.6,5,5.8,10.1,6.6,15.4c0.8,5.3,1.2,13.9,1.2,25.8v78.5h-35.1V248
		c0-7.2-1.2-13-3.6-17.4c-3.1-6.2-9-9.3-17.7-9.3c-9,0-15.9,3.1-20.5,9.3c-4.7,6.2-7,15-7,26.5v72.4h-34.4V149.3h34.4V213
		c5-7.8,10.7-13.2,17.2-16.2c6.5-3.1,13.4-4.6,20.6-4.6C832.5,192.2,839.9,193.6,846.5,196.5"/>
</g>
<path class="st0" d="M504.9,248.3l0,1.8c0,0,0,0,0,0v0V248.3z"/>
</svg>
